<?xml version="1.0" encoding="UTF-8"?>
<svg version="1.1" xmlns="http://www.w3.org/2000/svg" width="500" height="500">
<path d="M0 0 C165 0 330 0 500 0 C500 165 500 330 500 500 C335 500 170 500 0 500 C0 335 0 170 0 0 Z " fill="#FEFEFE" transform="translate(0,0)"/>
<path d="M0 0 C1.60101563 -0.01740234 1.60101563 -0.01740234 3.234375 -0.03515625 C8.86873668 -0.01413251 13.19140869 0.09605845 18 3.375 C22.02510587 7.72646581 23.11736017 10.88853271 23.17700195 16.72924805 C23.19625481 18.37191902 23.19625481 18.37191902 23.21589661 20.04777527 C23.22328354 21.23212662 23.23067047 22.41647797 23.23828125 23.63671875 C23.246353 24.85647903 23.25442474 26.07623932 23.26274109 27.33296204 C23.2765823 29.91784239 23.28730428 32.50274103 23.29516602 35.08764648 C23.31235604 39.02948958 23.35624132 42.97048913 23.40039062 46.91210938 C23.41051963 49.424473 23.41903508 51.93684376 23.42578125 54.44921875 C23.44328934 55.62344894 23.46079742 56.79767914 23.47883606 58.00749207 C23.46155108 64.57081709 23.13887287 70.04426152 19 75.375 C13.6387758 79.85016297 7.2000465 78.85111079 0.5625 78.8125 C-0.65244141 78.83248047 -1.86738281 78.85246094 -3.11914062 78.87304688 C-8.14471407 78.87029314 -12.01702062 78.80197183 -16.66015625 76.78515625 C-22.93042109 70.32646943 -22.45463746 62.98989909 -22.43359375 54.46875 C-22.4388356 53.23008179 -22.44407745 51.99141357 -22.44947815 50.71520996 C-22.45752094 47.43643523 -22.45045985 44.15808207 -22.43914795 40.8793335 C-22.43750126 38.87653508 -22.44949295 36.87430315 -22.46655273 34.87158203 C-22.49727004 31.00786936 -22.5006331 27.14506539 -22.49609375 23.28125 C-22.50732773 22.09253296 -22.51856171 20.90381592 -22.53013611 19.67907715 C-22.47436255 13.03175529 -22.05350784 8.74025184 -18 3.375 C-12.66677787 -0.70824819 -6.42407147 -0.06982686 0 0 Z " fill="#D92732" transform="translate(116,211.625)"/>
<path d="M0 0 C1.52947266 -0.01740234 1.52947266 -0.01740234 3.08984375 -0.03515625 C8.55937735 -0.01381867 12.93251282 0.03396771 17.5 3.375 C21.01144033 7.79848903 21.99588279 10.67876485 21.95410156 16.29833984 C21.95468567 16.9624588 21.95526978 17.62657776 21.95587158 18.31082153 C21.9531047 20.48640872 21.92208308 22.6605924 21.890625 24.8359375 C21.88315754 26.35193127 21.87746699 27.86793475 21.87347412 29.38394165 C21.85825726 33.35930387 21.81901056 37.33407442 21.7746582 41.3092041 C21.73361957 45.37141925 21.71544485 49.43373071 21.6953125 53.49609375 C21.65251137 61.45602993 21.58219489 69.41537302 21.5 77.375 C16.22 77.375 10.94 77.375 5.5 77.375 C5.005 45.695 5.005 45.695 4.5 13.375 C1.53 13.375 -1.44 13.375 -4.5 13.375 C-4.83 34.495 -5.16 55.615 -5.5 77.375 C-10.78 77.375 -16.06 77.375 -21.5 77.375 C-21.59048531 68.61254202 -21.6638217 59.85039598 -21.70724869 51.08757591 C-21.7280949 47.01833061 -21.75635753 42.94942241 -21.80175781 38.88037109 C-21.8453226 34.95109382 -21.86915942 31.02214013 -21.87950897 27.09263992 C-21.88688138 25.59594252 -21.9012782 24.09926218 -21.92292023 22.60270309 C-21.95209757 20.50086398 -21.95595032 18.40034994 -21.95410156 16.29833984 C-21.96298401 15.10365082 -21.97186646 13.90896179 -21.98101807 12.67807007 C-21.39713334 8.66863197 -20.00095799 6.5255477 -17.5 3.375 C-12.14776052 -0.54006406 -6.36248528 -0.07239237 0 0 Z " fill="#D9242F" transform="translate(172.5,211.625)"/>
<path d="M0 0 C5.28 0 10.56 0 16 0 C19.375 7.875 19.375 7.875 20.16796875 10.96484375 C20.33876953 11.61904297 20.50957031 12.27324219 20.68554688 12.94726562 C20.85119141 13.60404297 21.01683594 14.26082031 21.1875 14.9375 C21.36474609 15.62134766 21.54199219 16.30519531 21.72460938 17.00976562 C22.15467421 18.6719081 22.57805437 20.33577788 23 22 C24.42679449 19.27563014 25.54823412 16.59233094 26.5078125 13.671875 C26.77207031 12.87265625 27.03632813 12.0734375 27.30859375 11.25 C27.57800781 10.425 27.84742188 9.6 28.125 8.75 C28.40214844 7.90953125 28.67929687 7.0690625 28.96484375 6.203125 C29.64595253 4.13631215 30.32334233 2.06827438 31 0 C36.28 0 41.56 0 47 0 C44.67718392 10.03456546 41.92960731 19.56283774 38.19897461 29.17089844 C37.75050171 30.37407715 37.75050171 30.37407715 37.29296875 31.6015625 C37.0199292 32.30619629 36.74688965 33.01083008 36.46557617 33.73681641 C35.3205038 39.30305705 37.79452716 44.6163711 39.72265625 49.76953125 C39.98759384 50.49113937 40.25253143 51.2127475 40.52549744 51.95622253 C41.36620655 54.24351215 42.2140044 56.52808876 43.0625 58.8125 C43.91326979 61.11521824 44.76254876 63.41847306 45.61021423 65.72233582 C46.13673572 67.15207389 46.66529764 68.58106247 47.19606018 70.00923157 C49 74.88965315 49 74.88965315 49 76 C43.06 76 37.12 76 31 76 C28.69 68.08 26.38 60.16 24 52 C21.67780243 58.11265214 21.67780243 58.11265214 19.61328125 64.28125 C19.41774658 64.91095703 19.22221191 65.54066406 19.02075195 66.18945312 C18.67016724 67.33317383 18.67016724 67.33317383 18.3125 68.5 C17.1678125 72.2125 17.1678125 72.2125 16 76 C10.39 76 4.78 76 -1 76 C0.01181044 70.53504712 1.46558195 65.54250488 3.453125 60.34765625 C3.906875 59.15849609 4.360625 57.96933594 4.828125 56.74414062 C5.7767744 54.28781629 6.74037501 51.83721456 7.71875 49.39257812 C10.61133114 41.71643249 11.68676754 36.77461549 9 29 C8.66097656 27.92113525 8.32195312 26.84227051 7.97265625 25.73071289 C6.81958799 22.1365377 5.60665611 18.56795378 4.375 15 C3.54687881 12.58422316 2.72122271 10.16759941 1.8984375 7.75 C1.53411621 6.69296875 1.16979492 5.6359375 0.79443359 4.546875 C0 2 0 2 0 0 Z " fill="#D92731" transform="translate(360,213)"/>
<path d="M0 0 C11.55 0 23.1 0 35 0 C35 4.62 35 9.24 35 14 C29.06 14 23.12 14 17 14 C17 19.61 17 25.22 17 31 C22.61 31 28.22 31 34 31 C34 35.29 34 39.58 34 44 C28.06 44 22.12 44 16 44 C16 50.27 16 56.54 16 63 C21.94 63 27.88 63 34 63 C34 67.29 34 71.58 34 76 C22.78 76 11.56 76 0 76 C0 50.92 0 25.84 0 0 Z " fill="#DA2933" transform="translate(205,213)"/>
<path d="M0 0 C11.22 0 22.44 0 34 0 C34 4.62 34 9.24 34 14 C28.06 14 22.12 14 16 14 C16 20.27 16 26.54 16 33 C21.61 33 27.22 33 33 33 C33 37.29 33 41.58 33 46 C27.39 46 21.78 46 16 46 C16 55.9 16 65.8 16 76 C10.72 76 5.44 76 0 76 C0 50.92 0 25.84 0 0 Z " fill="#D9252F" transform="translate(249,213)"/>
<path d="M0 0 C5.28 0 10.56 0 16 0 C16 20.46 16 40.92 16 62 C21.94 62 27.88 62 34 62 C34 66.62 34 71.24 34 76 C22.78 76 11.56 76 0 76 C0 50.92 0 25.84 0 0 Z " fill="#D9242E" transform="translate(293,213)"/>
<path d="M0 0 C5.28 0 10.56 0 16 0 C16 25.08 16 50.16 16 76 C10.72 76 5.44 76 0 76 C0 50.92 0 25.84 0 0 Z " fill="#D9242E" transform="translate(335,213)"/>
<path d="M0 0 C0.80308594 0.01417969 1.60617188 0.02835938 2.43359375 0.04296875 C3.64208984 0.05263672 3.64208984 0.05263672 4.875 0.0625 C6.87109375 0.23046875 6.87109375 0.23046875 7.87109375 1.23046875 C7.96984545 2.9130211 7.99908279 4.59970903 8.00048828 6.28515625 C8.00364044 7.36297363 8.0067926 8.44079102 8.01004028 9.55126953 C8.00801605 10.72415527 8.00599182 11.89704102 8.00390625 13.10546875 C8.00486298 14.30026855 8.0058197 15.49506836 8.00680542 16.72607422 C8.00748746 19.25813855 8.00563153 21.79020463 8.00146484 24.32226562 C7.99611696 28.21358135 8.00140908 32.10478164 8.0078125 35.99609375 C8.00715172 38.44921901 8.00587057 40.90234419 8.00390625 43.35546875 C8.00593048 44.52835449 8.00795471 45.70124023 8.01004028 46.90966797 C8.00688812 47.98748535 8.00373596 49.06530273 8.00048828 50.17578125 C7.99969269 51.12984863 7.99889709 52.08391602 7.99807739 53.06689453 C7.87109375 55.23046875 7.87109375 55.23046875 6.87109375 56.23046875 C5.20680324 56.32870812 3.53827444 56.36020506 1.87109375 56.35546875 C0.50984375 56.35933594 0.50984375 56.35933594 -0.87890625 56.36328125 C-3.12890625 56.23046875 -3.12890625 56.23046875 -4.12890625 55.23046875 C-4.23280563 53.58402587 -4.26743208 51.93315143 -4.27416992 50.28344727 C-4.28054977 49.22887833 -4.28692963 48.17430939 -4.29350281 47.08778381 C-4.29461563 45.93990891 -4.29572845 44.792034 -4.296875 43.609375 C-4.3002034 42.43914291 -4.3035318 41.26891083 -4.30696106 40.06321716 C-4.31203534 37.58243199 -4.31436923 35.10163997 -4.31420898 32.62084961 C-4.31639482 28.81287456 -4.33454376 25.00518932 -4.35351562 21.19726562 C-4.35644949 18.79296975 -4.35843433 16.38867248 -4.359375 13.984375 C-4.36656052 12.83852432 -4.37374603 11.69267365 -4.38114929 10.51210022 C-4.37807266 9.45437912 -4.37499603 8.39665802 -4.37182617 7.30688477 C-4.37325119 6.37280289 -4.37467621 5.43872101 -4.37614441 4.47633362 C-4.03577332 1.38446676 -3.12054536 0.33782051 0 0 Z " fill="#FDF5F6" transform="translate(114.12890625,222.76953125)"/>
</svg>
